<svg id="Calque_1" data-name="Calque 1" xmlns="http://www.w3.org/2000/svg" viewBox="0 0 391.61 103.15"><defs><style>.cls-1{fill:#1d1d1b;}</style></defs><title>falke</title><polygon class="cls-1" points="0 0 32.62 0 32.62 10.69 13 10.69 13 15.88 29.84 15.88 29.84 25.81 13 25.81 13 41.69 0 41.69 0 0"/><path class="cls-1" d="M105,26.8,101.17,14h-.12L97,26.8ZM94.73,0h12.7L122.8,41.69H109.33l-1.78-5.95H94.14l-1.89,5.95H79.19Z"/><polygon class="cls-1" points="174.74 0 187.74 0 187.74 31.01 206.41 31.01 206.41 41.69 174.74 41.69 174.74 0"/><polygon class="cls-1" points="261.37 0 274.37 0 274.37 14.37 274.49 14.37 286.07 0 302.09 0 286.78 16.29 304.57 41.69 288.38 41.69 277.98 25.46 274.37 29.37 274.37 41.69 261.37 41.69 261.37 0"/><polygon class="cls-1" points="356.04 0 390.96 0 390.96 10.69 369.04 10.69 369.04 15.88 388.95 15.88 388.95 25.81 369.04 25.81 369.04 31.01 391.61 31.01 391.61 41.69 356.04 41.69 356.04 0"/><path class="cls-1" d="M61.12,63.12H79v2.14H61.12v8.41H79.84V76H57.11V53H79.84v2.3H61.12Z"/><path class="cls-1" d="M88.85,76h-4V53h16.31c7.64,0,11,1.38,11,6.61,0,3.21-.57,5.6-6.18,6.06v.06c4,.18,5.71,1.65,5.71,4.13V76h-4V71.1c0-2.9-1.08-4.31-5.94-4.31H88.85ZM101.2,64.5c6.18-.13,6.93-1.35,6.93-5.14,0-2.94-.61-4-6.93-4H88.85V64.5Z"/><path class="cls-1" d="M145.9,64.5v5c0,5.39-3.73,6.67-11.74,6.67h-3.87c-9.43,0-13.58-1.13-13.58-8.23v-7.1c0-6.21,4.34-8,10.38-8h9.29c5.32,0,9.43,1.41,9.43,5.11v1.77h-4V58.41c0-2.63-1.61-3.28-7.36-3.28h-4.95c-7.64,0-8.77,1-8.77,6V68.5c0,4.38,2.26,5.36,8.87,5.36h3.77c7,0,8.53-.55,8.53-4.23V66.79H130.62V64.5Z"/><path class="cls-1" d="M165.66,52.84c8.81.06,11.5,2,11.5,7.71v8.17c0,5.41-3,7.43-11.5,7.43h-4.77c-8.48,0-11.5-2-11.5-7.43V60.55c0-5.75,2.69-7.65,11.5-7.71Zm-4.77,2.29c-5.94,0-7.49.95-7.49,5.42v8.17c0,4.56,2.31,5.11,7.49,5.14h4.77c5.18,0,7.49-.58,7.49-5.14V60.55c0-4.47-1.55-5.42-7.49-5.42Z"/><path class="cls-1" d="M212.81,76h-6.56L186.4,55.16h-.09V76h-4V53h6.6l19.81,21h.09V53h4Z"/><path class="cls-1" d="M234.22,52.84c8.81.06,11.5,2,11.5,7.71v8.17c0,5.41-3,7.43-11.5,7.43h-4.77c-8.48,0-11.5-2-11.5-7.43V60.55c0-5.75,2.69-7.65,11.5-7.71Zm-4.77,2.29c-5.94,0-7.49.95-7.49,5.42v8.17c0,4.56,2.31,5.11,7.49,5.14h4.77c5.18,0,7.49-.58,7.49-5.14V60.55c0-4.47-1.55-5.42-7.49-5.42Z"/><path class="cls-1" d="M272.41,76h-4L255.06,55H255V76h-4V53h6.94l12.49,19.64L282.92,53h6.93V76h-4V55h-.1Z"/><path class="cls-1" d="M300.56,76h-4V53h4Z"/><path class="cls-1" d="M316.31,76.15c-6.46,0-10.28-2.63-10.28-7.22V60.06c0-6.49,6.17-7.22,14.76-7.22h3.3c7.4,0,9.66,2.08,9.66,6.61v.73h-4v-.64c0-3.21-1-4.41-6.22-4.41h-2.26C313,55.13,310,55.78,310,60v6.3c0,5.23.33,7.59,7,7.59h4.76c6.41,0,8.4-.58,8.4-3.86V68.17h4v2.14c0,5.26-5.18,5.84-12.26,5.84Z"/><path class="cls-1" d="M56.57,89.58c0-5,3.53-5.44,10.65-5.44,6.23,0,10.73.17,10.39,5.26H74.34C74.18,86.14,73.22,86,67.11,86c-6.39,0-7.27.53-7.27,3.12,0,3.57,2.61,3.27,8,3.37,6.84.25,10.31.12,10.31,5.19,0,5.29-3.85,5.46-11.12,5.46s-11.16-.57-10.54-6h3.27c-.08,4.12,1.15,4.12,7.27,4.12s7.85,0,7.85-3.67-2.47-3-7.74-3.24C61.45,94.07,56.57,94.52,56.57,89.58Z"/><path class="cls-1" d="M80.68,84.29h14.7c5.58,0,6.88,2.44,6.88,5.66,0,1.67,0,5.77-7,5.77H84V103H80.68ZM84,86.16v7.68h8.47c4.34,0,6.57,0,6.57-3.61s-1-4.07-5-4.07Z"/><path class="cls-1" d="M117.73,84.14c7.19,0,9.38,1.6,9.38,6.29v6.66c0,4.41-2.46,6.06-9.38,6.06h-3.89c-6.92,0-9.38-1.65-9.38-6.06V90.43c0-4.69,2.19-6.24,9.38-6.29ZM113.84,86c-4.84,0-6.11.78-6.11,4.42v6.66c0,3.72,1.88,4.16,6.11,4.19h3.89c4.23,0,6.11-.47,6.11-4.19V90.43c0-3.64-1.27-4.42-6.11-4.42Z"/><path class="cls-1" d="M133.65,103h-3.27V84.29h13.31c6.23,0,9,1.12,9,5.39,0,2.62-.46,4.56-5,4.94v0c3.23.15,4.65,1.35,4.65,3.37v5H149V99c0-2.37-.88-3.51-4.85-3.51h-10.5Zm10.08-9.35c5-.1,5.66-1.1,5.66-4.2,0-2.39-.5-3.29-5.66-3.29H133.65v7.49Z"/><path class="cls-1" d="M166.31,103H163V86.16H153.7V84.29h22v1.87h-9.35Z"/><path class="cls-1" d="M188.55,89.58c0-5,3.54-5.44,10.65-5.44,6.23,0,10.74.17,10.39,5.26h-3.27c-.15-3.26-1.12-3.39-7.23-3.39-6.39,0-7.27.53-7.27,3.12,0,3.57,2.61,3.27,8,3.37,6.85.25,10.31.12,10.31,5.19,0,5.29-3.85,5.46-11.12,5.46s-11.16-.57-10.54-6h3.27c-.08,4.12,1.15,4.12,7.27,4.12s7.85,0,7.85-3.67-2.46-3-7.73-3.24C193.43,94.07,188.55,94.52,188.55,89.58Z"/><path class="cls-1" d="M224,95.19V103h-3.27V95.19l-10.58-10.9H214l8.54,8.76,8.54-8.76h3.89Z"/><path class="cls-1" d="M235.13,89.58c0-5,3.54-5.44,10.65-5.44,6.24,0,10.74.17,10.39,5.26H252.9c-.15-3.26-1.11-3.39-7.23-3.39-6.39,0-7.27.53-7.27,3.12,0,3.57,2.62,3.27,8,3.37,6.85.25,10.31.12,10.31,5.19,0,5.29-3.85,5.46-11.12,5.46s-11.15-.57-10.54-6h3.27c-.07,4.12,1.16,4.12,7.27,4.12s7.85,0,7.85-3.67-2.46-3-7.73-3.24C240,94.07,235.13,94.52,235.13,89.58Z"/><path class="cls-1" d="M269.75,103h-3.27V86.16h-9.35V84.29h22v1.87h-9.35Z"/><path class="cls-1" d="M283.14,92.52h14.61v1.75H283.14v6.86h15.27V103H279.87V84.29h18.54v1.87H283.14Z"/><path class="cls-1" d="M319.06,103h-3.23L304.91,85.89h-.08V103h-3.27V84.29h5.66l10.19,16,10.23-16h5.66V103H330V85.89H330Z"/></svg>