<?xml version="1.0" encoding="UTF-8"?>
<svg width="62px" height="24px" viewBox="0 0 62 24" version="1.1" xmlns="http://www.w3.org/2000/svg" xmlns:xlink="http://www.w3.org/1999/xlink">
    <title>Fill 4</title>
    <g id="-" stroke="none" stroke-width="1" fill="none" fill-rule="evenodd">
        <g id="Homepage-Runningdirect-V2" transform="translate(-132.000000, -2112.000000)" fill="#000000">
            <g id="Group-14" transform="translate(59.918955, 2037.000000)">
                <g id="Merken-carroussel-breed" transform="translate(28.081045, 0.000000)">
                    <g id="Group-73" transform="translate(0.000000, 54.000000)">
                        <path d="M44.5006016,37.8469113 C44.4857378,39.50252 45.0043642,40.9478537 46.2497103,42.0434108 C48.0414018,43.6192459 50.0150745,44.1752064 51.9795076,44.1784878 C54.8502313,44.182161 57.7008687,43.0031484 59.9328503,42.0937296 C63.6917869,40.562895 105.243363,22.1875617 105.243363,22.1875617 C105.644284,21.9834232 105.568759,21.7281477 105.067407,21.8557854 C104.864938,21.9073314 59.8324192,34.3352373 59.8324192,34.3352373 C58.9630872,34.5835582 58.075276,34.7124232 57.2111664,34.7173323 C53.7503094,34.7381962 50.670689,32.7819025 50.6955959,28.6594493 C50.705639,27.0459774 51.1905206,25.1011384 52.3141441,22.8130684 C48.3447038,27.5598011 44.5387654,33.4470915 44.5006016,37.8469113 Z" id="Fill-4"></path>
                    </g>
                </g>
            </g>
        </g>
    </g>
</svg>