<?xml version="1.0" encoding="utf-8"?>
<!-- Generator: Adobe Illustrator 16.0.0, SVG Export Plug-In . SVG Version: 6.00 Build 0)  -->
<!DOCTYPE svg PUBLIC "-//W3C//DTD SVG 1.1//EN" "http://www.w3.org/Graphics/SVG/1.1/DTD/svg11.dtd">
<svg version="1.1" id="Logos" xmlns="http://www.w3.org/2000/svg" xmlns:xlink="http://www.w3.org/1999/xlink" x="0px" y="0px"
	 width="241.32px" height="57.228px" viewBox="0 0 241.32 57.228" enable-background="new 0 0 241.32 57.228" xml:space="preserve">
<g>
	<g>
		<g>
			<polygon points="13.445,11.171 13.439,11.171 13.439,11.171 			"/>
			<path d="M170.061,28.879c-0.951,0-1.96-0.292-3.003-0.861l-0.495-0.269l-2.315,5.091l0.436,0.229
				c1.979,1.074,3.773,1.53,5.978,1.53c4.1,0,6.47-1.997,8.461-7.117c0.003-0.005,9.903-25.611,9.903-25.611h-0.762h-6.151
				c0,0-5.116,14.658-5.926,16.971c-0.879-2.289-6.498-16.971-6.498-16.971h-7.063c0,0,10.126,24.29,10.303,24.717
				C172.061,28.483,171.21,28.879,170.061,28.879z"/>
			<path d="M105.903,22.438l0.335-0.37l-4.078-4.021l-0.375,0.377c-1.927,1.982-3.755,2.864-5.902,2.864
				c-3.83,0-6.719-3.115-6.719-7.269v-0.089c0-4.024,2.829-7.174,6.445-7.174c2.799,0,4.492,1.372,5.901,2.856l0.38,0.407
				l4.15-4.474l-0.323-0.358c-2.726-3.007-5.829-4.342-10.064-4.342c-7.336,0-13.082,5.784-13.082,13.174v0.096
				c0,7.31,5.725,13.037,13.038,13.037C100.958,27.153,103.814,24.771,105.903,22.438z"/>
			<path d="M120.977,27.064c7.573,0,13.498-5.765,13.498-13.128v-0.094c0-7.34-5.884-13.087-13.402-13.087
				c-7.544,0-13.455,5.787-13.455,13.181v0.094C107.617,21.335,113.487,27.064,120.977,27.064z M114.215,13.842
				c0-4.161,2.842-7.18,6.762-7.18c3.932,0,6.906,3.124,6.906,7.274v0.094c0,3.558-2.344,7.17-6.811,7.17
				c-3.852,0-6.857-3.187-6.857-7.265V13.842z"/>
			<path d="M71.686,1.622l0.026,0.515v13.848c0,2.815-1.824,4.777-4.456,4.777c-2.597,0-4.563-2.081-4.563-4.848V1.622h-6.939
				v14.362c0,6.269,5.022,10.392,11.435,10.392c1.962,0,3.792-0.727,5.393-1.543c0.154-0.079,0.301-0.159,0.451-0.242l0.075,1.277
				v0.488h5.552V15.913V13.64V1.622h-6.946H71.686z"/>
			<path d="M145.188,26.376l-0.031-0.513V12.018c0-2.82,1.825-4.782,4.457-4.782c2.602,0,4.567,2.083,4.567,4.849v14.291h6.938
				V12.018c0-6.275-5.022-10.396-11.44-10.396c-1.961,0-3.791,0.728-5.386,1.544c-0.156,0.078-0.304,0.159-0.459,0.242l-0.073-1.282
				V1.622h-5.555v10.463v2.272v12.019h6.95H145.188z"/>
			<path d="M44.473,2.032v1.071C42.475,1.967,40.104,0.8,37.496,0.8c-7.69,0-13.723,5.361-13.723,12.897v0.099
				c0,7.458,5.992,12.757,13.627,12.757c2.606,0,5.018-1.199,7.072-2.373v1.072v0.661h6.201V1.442h-6.201V2.032z M37.731,21.114
				c-4.163,0-7.542-3.321-7.542-7.417c0-4.095,3.379-7.413,7.542-7.413c4.169,0,7.544,3.318,7.544,7.413
				C45.275,17.793,41.9,21.114,37.731,21.114z"/>
			<path d="M11.719,5.085c1.689,0,4.023,0.814,6.923,2.416l0.232,0.128l2.597-4.703L21.26,2.792C18.438,1.045,14.882,0,11.756,0
				C6.951,0,2.102,2.569,2.102,8.319v0.096c0,4.703,4.326,6.574,8.093,7.678c2.496,0.738,4.933,1.612,4.933,3.463v0.099
				c0,0.798-0.357,2.887-3.676,2.887c-2.329,0-5.283-1.364-8.326-3.415l-0.22-0.153L0,23.445l0.199,0.146
				c3.244,2.395,7.164,4.025,11.047,4.025c6.521,0,10.115-3.165,10.115-8.356v-0.526c0-3.287-2.629-5.758-8.042-7.562h0.005h-0.005
				l0,0l-0.66-0.223c-2.513-0.834-4.327-1.442-4.327-3.348V7.496C8.332,6.334,9.393,5.085,11.719,5.085z"/>
		</g>
		<path d="M240.98,30.24v-0.011c-2.033-1.378-2.033-1.385-3.414-2.225c-13.295-8.06-20.175-9.008-26.614-6.851
			c-5.012,1.677-13.632,8.496-13.632,8.496c-7.873,5.251-15.831,13.93-34.484,12.916c-17.371-0.938-53.138-10.229-53.572-10.35
			c-0.433-0.121-0.884,0.197-0.75,0.709c0.104,0.383,0.971,2.284,0.971,2.284c0.111,0.259,0.34,0.321,0.448,0.368
			c14.253,5.721,57.693,21.65,73.05,21.65c18.3,0,33.439-25.405,49.714-25.405c5.054,0,6.335,0.182,7.063,0.189
			c0.711,0.06,1.328-0.158,1.502-0.791C241.262,31.221,241.512,30.691,240.98,30.24z M192.326,49.525L192.326,49.525L192.326,49.525
			z M193.76,46.528c-0.199,1.029-0.796,1.908-1.667,2.492l0,0c-0.874,0.578-1.919,0.783-2.938,0.578
			c-1.026-0.205-1.914-0.799-2.489-1.668c-1.203-1.805-0.708-4.236,1.087-5.438c1.794-1.19,4.236-0.7,5.433,1.094
			C193.76,44.456,193.97,45.504,193.76,46.528z M203.622,41.35c-1.806,1.195-4.232,0.7-5.438-1.092
			c-1.192-1.805-0.705-4.239,1.095-5.435c1.805-1.193,4.237-0.703,5.428,1.091c0.44,0.661,0.658,1.413,0.661,2.152
			C205.367,39.34,204.755,40.59,203.622,41.35z M216.818,31.187c-0.207,1.025-0.807,1.912-1.673,2.487
			c-0.874,0.583-1.913,0.788-2.94,0.578c-1.021-0.202-1.906-0.796-2.492-1.667c-0.578-0.874-0.78-1.914-0.578-2.941
			c0.207-1.026,0.801-1.911,1.673-2.49c0.866-0.58,1.913-0.785,2.936-0.58c1.029,0.205,1.913,0.799,2.491,1.671
			C216.818,29.114,217.025,30.157,216.818,31.187z"/>
	</g>
	<g>
		<path d="M195.51,1.871c2.622,0,4.811,2.053,4.811,4.743c0,2.745-2.188,4.794-4.811,4.794c-2.611,0-4.797-2.05-4.797-4.744
			C190.713,3.924,192.898,1.871,195.51,1.871z M195.51,10.716c2.254,0,4.049-1.771,4.049-4.102c0-2.296-1.795-4.053-4.049-4.053
			c-2.245,0-4.037,1.757-4.037,4.104C191.473,8.945,193.265,10.716,195.51,10.716z M193.729,3.909h2.033
			c1.317,0,1.945,0.486,1.945,1.59c0,0.991-0.641,1.409-1.46,1.5l1.592,2.439h-0.838l-1.512-2.374h-0.987v2.374h-0.773V3.909z
			 M194.502,6.372h0.951c0.765,0,1.48-0.038,1.48-0.912c0-0.768-0.65-0.859-1.239-0.859h-1.192V6.372z"/>
	</g>
</g>
</svg>
