<svg id="Layer_1" data-name="Layer 1" xmlns="http://www.w3.org/2000/svg" viewBox="0 0 132.39 125.1"><title>jordan</title><path d="M132.34,110.61a5,5,0,0,0-2.14-1,9.75,9.75,0,0,0-2.69,1.43,5.48,5.48,0,0,1-1.48.68c-.28,0-2.76.15-3.32.15s-1.39-.15-1.76-.12-1.12,0-1.27,0-.22-.25,0-.5.59-.92,1-1.42a4,4,0,0,1,1.36-1.08c.37-.19,1-.44,1-.68s-.93-.25-1.52-.07a5.52,5.52,0,0,0-1.64,1.27.58.58,0,0,1-.58.25c-.19,0-.56.31-.72.43a1.64,1.64,0,0,1-.92.41,2.09,2.09,0,0,1-1-.56,1.2,1.2,0,0,0-.8-.25,1.75,1.75,0,0,1-1.09-.4c-.34-.28-.43-.56-.34-.71a4.64,4.64,0,0,0,.34-.75c.07-.18-.18-.28-.4-.4a23,23,0,0,1-3.59-2.69c-1.27-1.12-3.56-2.76-4.61-3.62-.82-.67-5.23-4.09-8-5.82S93,91.7,92,91.54s-1.24-.25-1.49-.55a39.16,39.16,0,0,0-6.31-5.11c-2.2-1.21-6.63-3.32-6.85-3.5a3,3,0,0,0,.31-2.23c-.18-.71-1.67-1.8-2.26-2.2a5.85,5.85,0,0,0-1-.56s-1-2.13-1-2.44a38.08,38.08,0,0,0,.87-9.66c-.16-4.86-.53-5.58-1.06-6.6a15.35,15.35,0,0,1-1.85-4.3,12.19,12.19,0,0,1-.44-5.2c.28-.9,1-2.48,1.52-4.31a12.72,12.72,0,0,0,.25-3.8,15.54,15.54,0,0,0,.62-2.85c.09-1.61.68-1.71,1.11-4s.65-3.71.65-3.71a1.18,1.18,0,0,0,.93-.81c.16-.68.19-1.24.37-2.32s.25-2.32.28-2.57a1.4,1.4,0,0,0-.21-.65s.3-4.43.4-5.51.43-1.89.43-2.32a2.29,2.29,0,0,0-.46-1.55,2,2,0,0,1,.3-.51h.24A7.14,7.14,0,1,0,71,10.42a6,6,0,0,0,.36,1.09,4.08,4.08,0,0,1,.52.93,10.49,10.49,0,0,0,.72,1.42A3.92,3.92,0,0,1,73,15a3.81,3.81,0,0,0,.34,1,3.7,3.7,0,0,1-.06,1.7c-.16.74-.93,4.46-1.18,5.23a1.44,1.44,0,0,0-.71,1,18.49,18.49,0,0,1-.68,2.5,7.93,7.93,0,0,0-.37,1.95c0,.31-.07,1-.28,1.18-.25.37-.47,1-.68,1.33a4.51,4.51,0,0,0-.31,2,3.57,3.57,0,0,1-.28,1.86c-.34.75-.4,1.61-.59,2s-.81,2.69-.9,3.15-1,1.18-1.39,1.58a14.27,14.27,0,0,0-1.33,1.83,1.32,1.32,0,0,0-.31-.87c-.13-.21-.51-.31-.61-.41s.15-.36.18-.67,0-.65-.69-.87-.92-.26-1.16-.5-.95-.46-1.18-.78A4.83,4.83,0,0,0,57,37.59a5.32,5.32,0,0,0-2.67.76,7.1,7.1,0,0,0-3.44,5c-.4,2.91,2.23,4.77,2.45,5s.84.56.4,1.12a1.15,1.15,0,0,0-.31.71,2.93,2.93,0,0,1-.74,1c-.34.31-1.08,1.08-1.08,1.08a4.08,4.08,0,0,0-2.85,1.61,14.5,14.5,0,0,0-1,1.8c-.31.46-1.4,2.41-1.71,3a6,6,0,0,1-1.42,2.2A8.24,8.24,0,0,0,43,64.3s-2.45,3-3.31,4.42A48.14,48.14,0,0,0,37.38,73c-.09.34-.77,1.54-1,2A4.19,4.19,0,0,1,36,76.12a15.91,15.91,0,0,1-1.67,1.95,5.31,5.31,0,0,0-1.09,1.21,3.36,3.36,0,0,1-1.61,1.24,8.43,8.43,0,0,1-3.46,1.3c-1.71.19-2.64,0-2.76.65s2.85.74,3.84.59c1.3-.16,2.07-.84,2.23-.68s-.37,1-1.49,1.36-.93.68-.93.87.65.4,1.68.12,2.84-1.15,3-1-.4.94-.59,1.25a.47.47,0,0,0,.37.68c.28,0,1-.06,1.55-1.11A2.9,2.9,0,0,1,36.58,83c.21,0,1.17,1,1.82,1.3s2.08.25,2.23-.47-.86-.74-1.11-.74a1.41,1.41,0,0,1-.87-.87,13.46,13.46,0,0,0,.06-1.73,8.26,8.26,0,0,1,.62-3c.41-1,1.77-3.35,2.73-3.93s4.24-3,5.26-5.11,1.43-3.22,1.77-3.38a2.36,2.36,0,0,0,1.36-.83c.46-.65.62-1.15,1-1.15s.34-.15,1.39,1.39,1.49,1.83,1.58,2-.2.64.13,1.27c.43.83,1.05,1,1.05,1.45a5.78,5.78,0,0,0,.34,1.8c.22.56.64,1.45.4,1.82s-1,1.4-1.21,1.71a2.55,2.55,0,0,0-2.47,2.47c-.21,1.84.06,3.6,0,4a5.13,5.13,0,0,1-1.77,1.79c-.46.19-1.55.35-1.92.9s-.46,1-1.17,1.43A40.51,40.51,0,0,0,39.51,94a1.57,1.57,0,0,1-.72.38,5.49,5.49,0,0,0-2.09.76,8.56,8.56,0,0,0-1.35,1.31c-.21.32-.53.4-.63.51a53.35,53.35,0,0,0-8,4.38,59,59,0,0,0-8.91,7.89c-1.09,1.3-1.21,1.27-1.49,1.39s-.15.75-.06,1.06c0,0-.5.68-.81.74s-.58-.56-1-.59-.83.81-1,1-.31.62-.58.68-.78-.31-.84-1.08a2.57,2.57,0,0,0-.71-1.58c-.37,0-.59.59-.59.81a2.75,2.75,0,0,0,.4,1c.19.25.06.59.06.84s.31.49.34.58.16.78-.09.72a1.62,1.62,0,0,0-1.14.21,1.08,1.08,0,0,0-.56.78c0,.21.15.68-.59.83-.9.31-1.61.44-2.07.59a19.33,19.33,0,0,1-2,.84c-.43.06-.71,0-1.08.06s-.71.22-1.08.22a8.4,8.4,0,0,0-2,.89,1.86,1.86,0,0,0-.83,2.26,12.45,12.45,0,0,0,2.07,2.57,3.31,3.31,0,0,0,2.29,1,3.75,3.75,0,0,0,2.7-.71,4.81,4.81,0,0,1,2.63-.49,3.09,3.09,0,0,0,2.63-.16c1.18-.8.8-1.33,1.15-1.55.3,0,.43-.15.71-.62a1.83,1.83,0,0,1,1.11-1c.5-.09,1-.68,1.27-1.33a3.38,3.38,0,0,1,1.24-1.42,1.1,1.1,0,0,0,.59-.65c.09-.25.68-.47,1-.74s.62-.44.77-.31.44-.13.78-.38c.77-.37,1.14-1,1.39-.86s1.12.37,1.46.06,4.86-4,6.47-5.17c1.08-.74,1.89-1,4-2.26,1.72-1,4.37-2.76,5-3.16s3.28-2.48,3.62-2.72c.74-.53,1.51-.61,4.21-2,2-1,6.23-3.15,9.88-5.48a38.27,38.27,0,0,1,5.41-2.75c.41,0,1.52.8,2.7,1.24,1.43.53,2.38.65,4.43,1.33s7.55,3,8.88,3.53A16.93,16.93,0,0,0,84,98.85c1.3.25,1.92.43,2.35.53a5.64,5.64,0,0,1,1.21.24c.44.19,1.7,1,2.48,1.4s3.53,2.19,4.24,2.72,4,3.07,4.77,3.56a6.17,6.17,0,0,0,2,1.15,4.25,4.25,0,0,1,2,1c.75.59,2.48,1.79,3,2.17a4,4,0,0,0,2.13,1.08,2.83,2.83,0,0,1,2,.84c.62.55,1.55,1.79,2,2a3,3,0,0,1,1.11,1,11,11,0,0,0,1.77,2.11,1.8,1.8,0,0,1,.77,1.08,13.14,13.14,0,0,0,1.15,2.32c.34.53.49,1.05,1.48.37,1.27-.83,2.29-2,3.9-3.09s2.54-1.64,3.78-2.48a51,51,0,0,0,5.11-4.74c.86-.93,1.24-1.33,1.05-1.58Z"/></svg>