<?xml version="1.0" encoding="utf-8"?>
<!-- Generator: Adobe Illustrator 20.1.0, SVG Export Plug-In . SVG Version: 6.00 Build 0)  -->
<svg version="1.1" id="Capa_1" xmlns="http://www.w3.org/2000/svg" xmlns:xlink="http://www.w3.org/1999/xlink" x="0px" y="0px"
	 viewBox="0 0 463.8 279.9" style="enable-background:new 0 0 463.8 279.9;" xml:space="preserve">
<style type="text/css">
	.st0{fill-rule:evenodd;clip-rule:evenodd;}
</style>
<g>
	<path class="st0" d="M463.8,274.3c0-3-2.2-5.4-5.1-5.4c-2.6,0-5.1,2.4-5.1,5.4c0,3,2.2,5.5,5,5.5
		C461.5,279.8,463.8,277.3,463.8,274.3L463.8,274.3z M462.6,274.3c0,2.4-1.6,4.2-3.9,4.2c-2.2,0-4-1.8-4-4.2c0-2.2,1.9-4.1,3.9-4.1
		C460.9,270.3,462.6,272,462.6,274.3L462.6,274.3z M461.2,273.2c0-0.9-0.6-1.8-1.6-1.8h-2.2c-0.6,0-0.7,0.2-0.7,0.9v4.7l0.4,0.8
		c0.2,0,0.7-0.1,0.7-0.6V275h0.8c0.4,0.7,0.9,1.6,1.5,2.6c0.2,0.2,1.3,0,0.8-0.8c-0.3-0.5-0.7-1.3-1-1.9
		C460.8,274.9,461.2,274.1,461.2,273.2L461.2,273.2z M460,273.1c0,0.4-0.1,0.6-0.9,0.6c-0.7,0-1.4,0-1.4,0v-1.3c0,0,0.7,0,1.4,0
		C459.9,272.3,460,272.6,460,273.1L460,273.1L460,273.1z M451.3,259.8c0-9.5-4.8-9.4-8.1-9.4l-24.7,0c-1.1,0-2.3,0.7-2.3,2.5v25.9
		c0,1.1,1.1,1,0.7,1h7.3c0.4,0,1.4-0.2,1.4-1.2v-12.2c0,0,2,4.2,3,6.1c0,0,9.8,0,10.6,0c0.7,0,2.6-0.2,2.6,3.5
		c0,1.3-0.4,3.9,1.1,3.9h7.2c0.4,0,1,0,1-1.6c0-3.1,0.6-9.2-3.9-10C450,266.3,451.3,266,451.3,259.8L451.3,259.8z M442.1,261.7
		c0,1.5,0,3-5.5,3c-4.3,0-11.3,0-11.3,0v-5.3c0-0.6-0.1-1.2,1.8-1.2c2.1,0,11,0,11,0C441.9,258.1,442.1,258.6,442.1,261.7
		L442.1,261.7z M412.6,268v-15.5c0-0.9,0.2-2.2-1.8-2.2h-5.5c-1.8,0-1.6,1.3-1.6,2.2c0,0,0,14.4,0,15.5c0,1.1-0.2,4.1-4,4.1h-9.1
		c-3.8,0-4-3-4-4.1c0-1.1,0-15.5,0-15.5c0-0.9,0.1-2.2-1.7-2.2h-5.4c-1.9,0-1.8,1.2-1.8,2.2V268c0,3.3,0.2,11.8,10.7,11.8h13.5
		C412.4,279.8,412.6,271.3,412.6,268L412.6,268z M331.1,104.7c36.6-17.1,60.6-42.8,61.9-71.4c0,0-9.7-7.9-40.9-20.1
		C324.7,2.5,303.8,0,303.8,0l0.1,63.6c0,9.5-3.6,19.2-10.4,27.8c-20.7-5.3-43.6-8.3-67.6-8.3h0c-24,0-47,3-67.7,8.3
		c-6.8-8.6-10.4-18.3-10.4-27.8L147.8,0c0,0-20.9,2.5-48.3,13.2C68.3,25.4,58.6,33.3,58.6,33.3c1.3,28.5,25.2,54.3,61.9,71.4
		c-36.6,17.1-60.6,42.8-61.9,71.4c0,0,9.7,7.9,40.9,20.1c27.4,10.7,48.3,13.2,48.3,13.2l-0.1-63.6c0-9.5,3.6-19.2,10.4-27.8
		c20.7,5.3,43.6,8.3,67.6,8.3h0c24.1,0,47-3,67.7-8.3c6.8,8.6,10.4,18.3,10.4,27.8l-0.1,63.6c0,0,20.9-2.5,48.3-13.2
		c31.2-12.2,40.9-20.1,40.9-20.1C391.7,147.5,367.8,121.8,331.1,104.7L331.1,104.7z M278.9,104.7c-13,8.6-30.7,14.3-52.4,14.3
		l-0.7,0h0l-0.7,0c-21.7,0-39.4-5.6-52.3-14.3c13-8.6,30.7-14.3,52.4-14.3l0.7,0h0l0.7,0C248.2,90.4,265.9,96,278.9,104.7
		L278.9,104.7z M59.1,260.2c-2.6-3.9-6.6-9.9-9.4-9.9h-9.9c-1.7,0-1.6,1.3-1.6,2.2v25.2c0,0.8-0.2,2.1,1.6,2.1H45
		c1.8,0,1.7-1.2,1.7-2.1v-18.9c5.4,7.1,10.7,13.7,14.4,19c2,2,2.9,1.9,5.1,1.9c2.1,0,8.9,0,10.1,0v-27.3c0-0.9,0.1-2.2-1.6-2.2h-5.5
		c-1.8,0-1.7,1.3-1.7,2.2v18.7C64.9,267.8,61.2,263.2,59.1,260.2L59.1,260.2z M34.9,268v-15.5c0-0.9,0.2-2.2-1.8-2.2h-5.5
		c-1.8,0-1.7,1.3-1.7,2.2c0,0,0,14.4,0,15.5c0,1.1-0.2,4.1-4,4.1h-9.1c-3.8,0-4-3-4-4.1c0-1.1,0-15.5,0-15.5c0-0.9,0.1-2.2-1.6-2.2
		H1.8c-1.9,0-1.8,1.2-1.8,2.2V268c0,3.3,0.2,11.8,10.7,11.8h13.5C34.7,279.8,34.9,271.3,34.9,268L34.9,268z M104.1,250.3H79.6v29.4
		h8.6v-6.2l2.9,6.2c0,0,10.5,0,13.2,0c12.5,0,11.3-7,11.3-18.4C115.6,250.1,105.6,250.4,104.1,250.3L104.1,250.3z M102.1,258.2
		c2.9,0,4.8,0.3,4.8,7.2c0,2.1,0.3,6.6-4.1,6.6c-4.5,0-14.6,0-14.6,0v-13.8H102.1L102.1,258.2z M118.9,256.6c0,0,0,13.1,0,16.2
		c0,6.5,3.8,7.1,5.8,7.1c0.6,0,23.4,0,23.4,0c1.8,0,1.7-1.3,1.7-3.7c0-2.2,0.1-3.6-1.7-3.6c0,0-17.9,0-18.5,0
		c-0.4,0-1.9,0.4-1.9-1.4c0-1.4,0-7.7,0-7.7l2.5,5.2c0,0,14.8,0,16.3,0c1.4,0,1.4-0.7,1.1-1.4c-0.3-0.8-2.5-5.4-2.5-5.4h-15.8
		c-1.8,0-1.5-0.7-1.5-2.5c0-1.8,1.6-1.5,2.1-1.5c0.6,0,17.8,0,17.8,0c1.9,0,1.7-1.3,1.7-3.6c0-2.5,0.3-3.8-1.7-3.8c0,0-22,0-22.6,0
		C119.8,250.5,118.9,254.9,118.9,256.6L118.9,256.6z M153.2,252.9v25.9c0,1.1,1.1,1,0.7,1h7.3c0.4,0,1.4-0.2,1.4-1.2v-12.2
		c0,0,2,4.2,3,6.1c0,0,9.8,0,10.7,0c0.7,0,2.6-0.2,2.6,3.5c0,1.3-0.4,3.9,1.1,3.9h7.2c0.4,0,1,0,1-1.6c0-3.1,0.6-9.2-3.9-10
		c2.6-1.9,3.9-2.2,3.9-8.4c0-9.5-4.8-9.4-8.1-9.4l-24.7,0C154.4,250.3,153.2,251,153.2,252.9L153.2,252.9z M162.4,259.4
		c0-0.6-0.1-1.2,1.8-1.2c2.1,0,11,0,11,0c3.8,0,4,0.5,4,3.6c0,1.5,0,3-5.5,3c-4.3,0-11.3,0-11.3,0V259.4L162.4,259.4z M222.4,250.5
		c0,0-13,24.9-14.9,28.8v0.6h9.4c1.3-2.3,5-9.9,5.7-11.1c0.6,1.3,2.5,5.9,2.5,5.9h11.3l2.7,5.1h9.3v-1c-1.9-3.6-10.8-20.8-12.1-23.6
		c-1.9-3.9-3.7-4.8-5.5-4.8H222.4L222.4,250.5z M223.3,267.5c0.3-0.7,4.1-8.1,4.5-8.8l0.4,0c0.4,0.8,4,8.2,4.3,8.9l-0.4,0.4h-8.5
		L223.3,267.5L223.3,267.5z M250.9,252.9v25.9c0,1.1,1.1,1,0.7,1h7.3c0.4,0,1.4-0.2,1.4-1.2v-12.2c0,0,2,4.2,3,6.1c0,0,9.8,0,10.6,0
		c0.7,0,2.6-0.2,2.6,3.5c0,1.3-0.4,3.9,1.1,3.9h7.2c0.4,0,1,0,1-1.6c0-3.1,0.6-9.2-3.9-10c2.6-1.9,3.9-2.2,3.9-8.4
		c0-9.5-4.8-9.4-8.1-9.4l-24.7,0C252.1,250.3,250.9,251,250.9,252.9L250.9,252.9z M260.1,259.4c0-0.6-0.1-1.2,1.8-1.2
		c2.1,0,11,0,11,0c3.8,0,4,0.5,4,3.6c0,1.5,0,3-5.5,3c-4.3,0-11.3,0-11.3,0V259.4L260.1,259.4z M288.8,252.5v25.2
		c0,0.8-0.1,2.1,1.7,2.1h5c1.8,0,1.7-1.2,1.7-2.1v-18.4c3.4,6.6,8.6,16.7,10.4,20.4h7.7c1.9-3.7,7-13.8,10.5-20.4v18.4
		c0,0.8-0.1,2.1,1.7,2.1h5c1.8,0,1.6-1.2,1.6-2.1v-25.2c0-0.9,0.2-2.1-1.6-2.1l-8.6,0c-1.4,0-3.2-0.3-5.3,4.1
		c-1.5,3.5-4.9,10.8-7.2,14.6c-2.2-3.9-5.5-11.1-7-14.6c-2.1-4.4-3.9-4.1-5.2-4.1l-8.6,0C288.7,250.3,288.8,251.6,288.8,252.5
		L288.8,252.5z M337.2,264.5c0,6-0.4,15.4,7.8,15.4h21.7c8.3,0,7.9-9.3,7.9-15.4c0-5.5,0.7-14.3-9.6-14.3h-18.2
		C336.7,250.3,337.2,258.9,337.2,264.5L337.2,264.5z M346.8,264.7c0-2.7-0.6-7,4.7-7l9.1,0c5.4,0,4.8,4.3,4.8,7c0,3,0.1,7.6-4,7.6
		l-10.8,0C346.6,272.3,346.8,267.7,346.8,264.7L346.8,264.7z"/>
</g>
</svg>
