<?xml version="1.0" encoding="utf-8"?>
<!-- Generator: Adobe Illustrator 16.0.0, SVG Export Plug-In . SVG Version: 6.00 Build 0)  -->
<!DOCTYPE svg PUBLIC "-//W3C//DTD SVG 1.1//EN" "http://www.w3.org/Graphics/SVG/1.1/DTD/svg11.dtd">
<svg version="1.1" id="Layer_1" xmlns="http://www.w3.org/2000/svg" xmlns:xlink="http://www.w3.org/1999/xlink" x="0px" y="0px"
	 width="215px" height="64px" viewBox="0 0 215 64" enable-background="new 0 0 215 64" xml:space="preserve">
<path d="M60.095,32.505c0,15.93-12.915,28.845-28.846,28.845c-15.927,0-28.843-12.915-28.843-28.845
	c0-15.931,12.917-28.846,28.843-28.846C47.18,3.659,60.095,16.574,60.095,32.505"/>
<path d="M64.502,15.789c0-4.614,7.772-4.601,7.772,0v8.101h10.532c5.291,0,7.136,3.734,7.136,6.621V46.49
	c0,4.589-7.772,4.589-7.772,0V33.233c0-1.315-0.828-1.583-1.477-1.583H72.67c-0.333,0-0.341,0.104-0.341,0.439v14.4
	c0,4.589-7.828,4.589-7.828,0.022V15.789z"/>
<path d="M99.866,27.306v13.287c0,1.111,0.693,1.987,1.479,1.987c0.757,0,6.045,0.001,6.045,0.001c0.921,0,1.471-0.885,1.471-1.988
	V27.306c0-4.555,7.773-4.555,7.773,0v16.306c0,3.728-3.172,6.323-6.742,6.323H98.829c-4.377,0-6.735-3.307-6.735-6.349l0.001-16.269
	C92.095,22.751,99.866,22.751,99.866,27.306"/>
<path d="M118.785,30.549c0-3.949,3.42-6.659,6.685-6.659h14.092c4.511,0,6.78,3.681,6.78,6.659v15.917c0,4.596-7.772,4.596-7.772,0
	V32.8c0-1.524-2.121-1.524-2.121,0c0,0.662-0.004,13.666-0.004,13.666c0,4.596-7.773,4.596-7.773,0V32.8c0-1.531-2.109-1.51-2.109,0
	c0,0.086-0.005,13.69-0.005,13.69c0,4.589-7.771,4.589-7.771,0V30.549z"/>
<path d="M148.495,30.549c0-3.949,3.422-6.659,6.685-6.659h14.092c4.509,0,6.78,3.681,6.78,6.659v15.917c0,4.596-7.771,4.596-7.771,0
	c0,0-0.003-12.878-0.003-13.666c0-1.524-2.121-1.524-2.121,0v13.666c0,4.596-7.774,4.596-7.774,0V32.8c0-1.531-2.112-1.51-2.112,0
	c0,0.086-0.005,13.69-0.005,13.69c0,4.589-7.77,4.589-7.77,0V30.549z"/>
<path d="M212.217,15.789V46.49c0,4.593-7.794,4.593-7.794,0V15.789C204.423,11.188,212.217,11.188,212.217,15.789"/>
<path d="M178.204,42.538c0,0.246,0.012,0.707,0.012,0.707c0,3.266,2.711,6.687,6.659,6.687l13.678,0.001
	c4.85,0,4.85-7.501-0.044-7.501h-11.828c-1.579,0-1.713-2.544,0-2.544h8.652c2.594,0,6.938-1.827,6.938-6.784v-2.302
	c0-4.442-4.374-6.908-7.245-6.908l-10.139-0.004c-3.263,0-6.684,2.711-6.684,6.66V42.538z M193.725,33.25h-7.044
	c-1.821,0-1.777-2.572,0-2.572h7.044C195.458,30.678,195.505,33.25,193.725,33.25"/>
<g>
	<polygon fill="#FFFFFF" points="31.25,40.374 23.676,32.938 23.676,40.374 31.25,47.81 38.826,40.374 38.826,32.938 	"/>
	<polygon fill="#FFFFFF" points="38.826,18.068 31.25,25.503 23.676,18.068 23.676,25.503 31.25,32.938 38.826,25.503 	"/>
</g>
</svg>
