<?xml version="1.0" encoding="utf-8"?>
<!-- Generator: Adobe Illustrator 16.0.0, SVG Export Plug-In . SVG Version: 6.00 Build 0)  -->
<!DOCTYPE svg PUBLIC "-//W3C//DTD SVG 1.1//EN" "http://www.w3.org/Graphics/SVG/1.1/DTD/svg11.dtd">
<svg version="1.1" id="Layer_1" xmlns="http://www.w3.org/2000/svg" xmlns:xlink="http://www.w3.org/1999/xlink" x="0px" y="0px"
	 width="239.384px" height="38.862px" viewBox="-97.652 70.866 239.384 38.862"
	 enable-background="new -97.652 70.866 239.384 38.862" xml:space="preserve">
<g>
	<g>
		<g>
			<path d="M80.196,90.298c0.544-0.639,0.86-1.499,0.86-2.397V84.59H64.126v3.684h9.354l-8.195,9.061
				c-0.54,0.641-0.907,1.424-0.907,2.335v3.368h16.917v-3.678h-9.278L80.196,90.298z"/>
		</g>
		<path d="M130.674,88.271c1.022,0,1.842,0.826,1.842,1.849v7.387c0,1.019-0.821,1.853-1.844,1.853h-2.783
			c-1.02,0-1.852-0.834-1.852-1.853V90.12c0-1.021,0.832-1.849,1.852-1.849H130.674z M122.709,84.59
			c-2.04,0-3.723,1.651-3.723,3.693v11.059c0,2.038,1.683,3.694,3.723,3.694h13.177c2.04,0,3.673-1.656,3.673-3.694V88.283
			c0-2.042-1.633-3.693-3.673-3.693H122.709z"/>
		<g>
			<path d="M54.892,84.59h7.054v14.755c0,2.041-1.633,3.691-3.672,3.691h-3.381L54.892,84.59L54.892,84.59z"/>
		</g>
		<g>
			<path d="M87.212,103.036c-2.039,0-3.715-1.656-3.715-3.694V84.59h7.053v12.911c0,1.02,0.849,1.857,1.863,1.857h2.261
				c1.024,0,1.824-0.834,1.824-1.853V84.59h16.388c2.038,0,3.679,1.649,3.679,3.691v14.755h-7.049V90.111
				c0-1.021-0.832-1.84-1.853-1.84h-4.114v11.069c0,2.038-1.626,3.694-3.667,3.694L87.212,103.036L87.212,103.036z"/>
		</g>
		<path d="M44.523,78.243c-2.645,0-5.005,1.205-6.568,3.096l-17.991,21.697h10.208L43.82,86.589c1.023-1.221,2.557-1.999,4.28-1.999
			h3.602l-15.234,18.446h10.95c2.553,0,4.604-2.068,4.604-4.62V78.243H44.523z"/>
		<g>
			<path d="M21.409,81.339L3.423,103.036h10.202l13.646-16.447c1.025-1.221,2.562-1.999,4.276-1.999h3.715v-6.347h-7.288
				C25.334,78.243,22.969,79.448,21.409,81.339z"/>
		</g>
	</g>
	<path d="M-57.404,93.255c4.171,0.149,7.373-0.179,13.191-1.449c-2.744,2.048-5.166,5.775-5.44,8.625
		C-51.099,98.263-54.447,94.904-57.404,93.255z M-41.299,108.614c-1.156-3.71-2.864-12.02,4.478-17.173
		c5.245-3.68,21.163-8.026,29.691-11.153L-1,71.98c-5.847,3-13.437,6.074-20.354,8.194c-15.424,4.726-24.651,7.53-36.535,7.763
		c-8.554,0.168-8.671-3.868-0.348-11.107c-9.345,3.627-22.413,7.925-37.414,11.282c13.38,0.376,23.542,3.096,29.646,6.644
		c8.695,5.048,10.804,10.352,11.785,13.858H-41.299L-41.299,108.614z"/>
</g>
</svg>
