<?xml version="1.0" encoding="utf-8"?>
<!-- Generator: Adobe Illustrator 16.0.0, SVG Export Plug-In . SVG Version: 6.00 Build 0)  -->
<!DOCTYPE svg PUBLIC "-//W3C//DTD SVG 1.1//EN" "http://www.w3.org/Graphics/SVG/1.1/DTD/svg11.dtd">
<svg version="1.1" id="Layer_1" xmlns="http://www.w3.org/2000/svg" xmlns:xlink="http://www.w3.org/1999/xlink" x="0px" y="0px"
	 width="246.643px" height="89.175px" viewBox="0 0 246.643 89.175" enable-background="new 0 0 246.643 89.175"
	 xml:space="preserve">
<path fill-rule="evenodd" clip-rule="evenodd" d="M246.643,0.918c-0.353,0.163-0.701,0.333-1.057,0.489
	c-22.497,9.949-44.994,19.897-67.493,29.843C144.019,46.313,109.945,61.375,75.87,76.436c-3.381,1.494-6.744,3.034-10.159,4.446
	c-5.952,2.461-12.05,4.502-18.316,6.014c-3.736,0.902-7.511,1.6-11.336,1.984c-2.871,0.289-5.754,0.373-8.636,0.221
	c-4.289-0.226-8.466-0.995-12.435-2.72c-3.613-1.568-6.778-3.739-9.309-6.789c-2.527-3.048-4.108-6.552-4.973-10.39
	C-0.06,65.805-0.154,62.37,0.191,58.91c0.402-4.032,1.528-7.874,2.944-11.647c2.03-5.413,4.669-10.525,7.638-15.474
	c3.447-5.745,7.375-11.155,11.484-16.437c3.763-4.838,7.797-9.434,12.188-13.714c0.458-0.447,0.92-0.889,1.388-1.327
	C35.922,0.227,36.041,0.175,36.318,0c-0.213,0.468-0.332,0.751-0.468,1.023c-1.889,3.788-3.649,7.632-5.121,11.605
	c-1.375,3.71-2.458,7.5-3.065,11.412c-0.594,3.828-0.649,7.654,0.31,11.442c1.184,4.675,3.778,8.39,7.713,11.162
	c2.681,1.889,5.665,3.102,8.845,3.851c3.097,0.729,6.238,1.065,9.416,1.01c1.85-0.033,3.69-0.22,5.525-0.467
	c5.441-0.734,10.723-2.17,16.005-3.606c15.362-4.174,30.725-8.343,46.083-12.533c11.794-3.218,23.575-6.471,35.367-9.694
	c12.648-3.458,25.3-6.9,37.95-10.35c12.411-3.385,24.821-6.771,37.23-10.157c4.661-1.273,9.322-2.548,13.985-3.821
	c0.164-0.045,0.333-0.077,0.499-0.115C246.61,0.813,246.625,0.866,246.643,0.918z"/>
</svg>
