<svg id="Ebene_1" data-name="Ebene 1" xmlns="http://www.w3.org/2000/svg" viewBox="0 0 315.21 212.5"><defs><style>.cls-1,.cls-2{fill:#1d1d1b;}.cls-2{fill-rule:evenodd;}</style></defs><title>adidas</title><path class="cls-1" d="M291.13,212.5c-14.88,0-23.73-7.61-24.26-18.42h14c0,3.36,2.12,8.32,11.14,8.49,6,0,8.87-3.54,8.87-6.19-.36-4.25-5.67-4.6-11.35-5.49s-10.43-1.94-14-3.72a14.47,14.47,0,0,1-7.45-12.93c0-9.57,8.33-17.18,22.15-17.18,13.44,0,21.95,7.08,22.84,17.53H299.63c-.18-2.82-.71-7.27-8.68-7.27-5.32,0-8.84,1.08-9.21,4.79,0,5.5,11.16,5.14,19.83,7.43,8.32,2.13,13.64,7.27,13.64,14.53,0,13.28-10.8,18.42-24.08,18.42Z"/><polygon class="cls-1" points="34 123.6 80.58 96.86 105.18 139.36 43.04 139.36 34 123.6 34 123.6"/><polygon class="cls-1" points="138.31 211.26 125.02 211.26 125.02 157.59 138.31 157.59 138.31 211.26 138.31 211.26"/><path class="cls-2" d="M12.75,184.68a15.5,15.5,0,0,0,31,0,15.68,15.68,0,0,0-15.58-15.41,15.65,15.65,0,0,0-15.41,15.41Zm15,27.81A28,28,0,0,1,0,184.68a27.7,27.7,0,0,1,27.8-27.62,27.68,27.68,0,0,1,15.94,4.79v-4.26h13.1v53.66H43.74v-3.55A28.16,28.16,0,0,1,27.8,212.5Z"/><polygon class="cls-1" points="206.66 139.36 141.84 26.91 188.43 0 269 139.36 206.66 139.36 206.66 139.36"/><path class="cls-2" d="M74.19,184.68a15.5,15.5,0,1,0,15.59-15.41,15.53,15.53,0,0,0-15.59,15.41ZM89.43,212.5a27.72,27.72,0,1,1,0-55.43,27.07,27.07,0,0,1,15.76,4.79V139.36h13.27v71.9H105.18v-3.55a28.38,28.38,0,0,1-15.76,4.79Z"/><polygon class="cls-1" points="88.36 75.78 135.12 49.05 187.35 139.36 138.31 139.36 138.31 152.65 125.02 152.65 125.02 139.36 88.36 75.78 88.36 75.78"/><path class="cls-2" d="M217.81,184.68a15.49,15.49,0,0,0,15.41,15.23,15.33,15.33,0,0,0,15.22-15.23,15.49,15.49,0,0,0-15.22-15.41,15.65,15.65,0,0,0-15.41,15.41Zm14.88,27.81a28,28,0,0,1-27.81-27.81,27.7,27.7,0,0,1,27.81-27.62,26.69,26.69,0,0,1,15.75,4.79v-4.26h13.29v53.66H248.44v-3.55a27.55,27.55,0,0,1-15.75,4.79Z"/><path class="cls-2" d="M156.55,184.68a15.4,15.4,0,0,0,30.8,0,15.4,15.4,0,1,0-30.8,0Zm30.8-45.32h13.11v71.9H187.35v-3.55a28.06,28.06,0,0,1-43.74-23,27.7,27.7,0,0,1,27.81-27.62,27.24,27.24,0,0,1,15.93,4.79V139.36Z"/></svg>