<?xml version="1.0" encoding="UTF-8"?>
<svg width="86px" height="28px" viewBox="0 0 86 28" version="1.1" xmlns="http://www.w3.org/2000/svg" xmlns:xlink="http://www.w3.org/1999/xlink">
    <title>Group 47</title>
    <g id="-" stroke="none" stroke-width="1" fill="none" fill-rule="evenodd">
        <g id="Homepage-Runningdirect-V2" transform="translate(-279.000000, -2110.000000)" fill="#000000">
            <g id="Group-14" transform="translate(59.918955, 2037.000000)">
                <g id="Merken-carroussel-breed" transform="translate(28.081045, 0.000000)">
                    <g id="Group-72" transform="translate(157.928571, 53.000000)">
                        <g id="Asics" transform="translate(0.500000, 0.790323)">
                            <g id="Group-47" transform="translate(32.928571, 19.209677)">
                                <path d="M8.50540663,19.4096206 C6.94443435,19.4096206 6.19407088,18.2091549 6.58508632,16.8196502 C7.39472967,13.9419696 12.5941731,9.67613585 16.1364834,9.67613585 C18.7222058,9.67613585 18.5244775,11.9878578 17.0106202,13.9606997 L16.1729782,14.8869718 C13.1699796,17.8351318 10.3849841,19.4096206 8.50540663,19.4096206 Z M21.1702522,0 C16.6483757,0.00193094048 11.6673217,2.76858246 8.54093594,5.38848251 L8.78828941,5.7457065 C13.6407428,2.34338937 20.3770218,0.130724671 22.2345866,3.44943208 C23.2151181,5.20118128 21.5498751,8.7369264 19.2060995,11.5319627 C19.7680032,10.2975125 19.3978419,7.92786234 16.1297251,7.92786234 C10.694707,7.92786234 1.13686838e-13,15.1266015 1.13686838e-13,22.4912085 C1.13686838e-13,25.4428442 2.04602453,27.3677987 5.41706043,27.3677987 C14.4420831,27.3677987 26.6828941,12.5738982 26.6828941,5.14325307 C26.6821218,2.51910495 25.1721263,0 21.1702522,0 L21.1702522,0 Z" id="Fill-1"></path>
                                <path d="M32.7891072,19.4096206 C32.2648569,19.4096206 31.8273058,19.2252158 31.5538846,18.8921286 C31.2686847,18.5406974 31.1837233,18.0440595 31.3196615,17.5302363 C31.6181849,16.4151181 32.8200023,15.5413676 34.0538732,15.5413676 L36.9580077,15.5413676 L35.9212858,19.4096206 L32.7891072,19.4096206 Z M41.1381077,7.81026806 C40.3060654,6.78937983 38.962517,6.33213312 38.0003294,6.33213312 L32.7213312,6.33213312 L31.8255679,9.67381872 L36.8029532,9.67381872 L37.2797024,9.72421627 C37.2847229,9.72421627 37.7384939,9.77673785 37.9881645,10.1169696 C38.1930373,10.3998523 38.2223876,10.822149 38.0758292,11.3742049 L37.8400613,12.2529759 L34.7046002,12.2529759 C32.0047592,12.2529759 28.2419355,14.1899023 27.4037142,17.3180259 C26.9858587,18.8784189 27.3515788,20.229498 28.1623807,21.2225806 C28.9666174,22.2085189 30.4831781,22.7514993 32.1233189,22.7514993 L35.0276465,22.7514993 L35.0262949,22.7520786 L38.7178669,22.7520786 L41.7247274,11.5327351 C42.2246479,9.66358473 41.682826,8.47644253 41.1381077,7.81026806 L41.1381077,7.81026806 Z" id="Fill-2"></path>
                                <path d="M77.3942185,6.33213312 C75.9668673,6.33213312 74.6410836,6.7546229 73.5611086,7.55480463 C72.4710927,8.36174466 71.8703771,9.33165607 71.5119945,10.6682531 C70.7359496,13.5660154 73.0115629,14.9642095 74.8432531,15.9551681 C76.1553271,16.6665266 77.2889823,17.2794071 77.0451045,18.1881077 C76.8703544,18.8407656 76.5861199,19.4105861 74.9710813,19.4105861 L70.0427419,19.4105861 L69.1485234,22.7520786 L74.6034303,22.7520786 C76.0663108,22.7520786 77.415652,22.4471831 78.5037369,21.6122444 C79.5937528,20.7747955 80.2087574,19.6065766 80.5901181,18.1819287 C80.9544866,16.8248637 80.7077124,15.5307474 79.8358928,14.5635393 C79.1087006,13.7531236 78.0621308,13.1889028 77.1393344,12.6907201 C75.9581781,12.0548614 74.8447978,11.4551113 75.0398228,10.7271468 C75.1581895,10.288244 75.5961268,9.67381872 76.5498183,9.67381872 L81.3427987,9.67381872 L82.238562,6.33213312 L77.3942185,6.33213312" id="Fill-3"></path>
                                <path d="M48.7910041,6.33213312 C47.3632667,6.33213312 46.0369037,6.7546229 44.9567356,7.55480463 C43.867492,8.36174466 43.2667765,9.33165607 42.9066561,10.6682531 C42.130418,13.5660154 44.409507,14.9642095 46.2390731,15.9551681 C47.5513403,16.6665266 48.6853816,17.2794071 48.4411177,18.1881077 C48.2661745,18.8407656 47.9817469,19.4105861 46.3669014,19.4105861 L41.4395275,19.4105861 L40.5437642,22.7520786 L45.9990572,22.7520786 C47.4630963,22.7520786 48.8130168,22.4471831 49.9005225,21.6122444 C50.9909246,20.7747955 51.6055429,19.6065766 51.9869037,18.1819287 C52.3504998,16.8248637 52.1035325,15.5307474 51.2330645,14.5635393 C50.5066447,13.7531236 49.4585302,13.1889028 48.5345752,12.6907201 C47.3549637,12.0548614 46.2411972,11.4551113 46.4369945,10.7271468 C46.5545888,10.288244 46.9932985,9.67381872 47.9454453,9.67381872 L52.7370741,9.67381872 L53.634189,6.33213312 L48.7910041,6.33213312" id="Fill-4"></path>
                                <polyline id="Fill-5" points="56.2342004 6.33213312 51.9560086 22.7520786 55.5697637 22.7520786 59.8460245 6.33213312 56.2342004 6.33213312"></polyline>
                                <path d="M69.4634598,6.33213312 C63.1004316,6.3554975 59.7707179,10.5939119 58.7127556,14.5419128 C57.4588028,19.2232849 59.9512608,22.7520786 64.5098251,22.7520786 L67.5645729,22.7520786 L68.4587915,19.4105861 L65.4053953,19.4105861 C63.6988301,19.4105861 61.3535098,18.067617 62.2988982,14.5419128 C63.049841,11.7385734 65.7811563,9.67381872 68.7808723,9.67381872 L70.7201159,9.67381872 L71.6156861,6.33213312 L69.4634598,6.33213312" id="Fill-6"></path>
                                <path d="M81.9840641,22.0013289 L82.3011245,22.0013289 L82.3011245,21.2917083 L82.5523398,21.2917083 C82.7212971,21.2917083 82.8392776,21.3104384 82.9045434,21.3480918 C83.0176965,21.4164471 83.0769764,21.5541231 83.0769764,21.7626647 L83.0769764,21.9061336 L83.0821899,21.9636756 C83.084507,21.9715925 83.0852794,21.9783507 83.0872104,21.985109 C83.088562,21.9905157 83.0901068,21.9957292 83.0912653,22.0013289 L83.3888233,22.0013289 L83.3785893,21.9798955 C83.3714448,21.9648342 83.3666174,21.9327806 83.3623694,21.8856656 C83.3598592,21.8375852 83.3567697,21.7935597 83.3579282,21.7510791 L83.3579282,21.619582 C83.3567697,21.5284416 83.3258746,21.4353703 83.2598364,21.340368 C83.1941845,21.2444003 83.0901068,21.1864721 82.9487619,21.1633008 C83.0595979,21.1455361 83.1478419,21.1177306 83.2104044,21.0758292 C83.3285779,20.9993639 83.3865061,20.8819627 83.3861199,20.720343 C83.3865061,20.4940368 83.293821,20.3420718 83.1078714,20.2638687 C83.0030214,20.2211949 82.8392776,20.2001477 82.6145161,20.2001477 L81.9840641,20.2001477 L81.9840641,22.0013289 L81.9840641,22.0013289 Z M82.8898682,21.0298728 C82.8230577,21.0559405 82.7224557,21.0700363 82.5882553,21.0700363 L82.3011245,21.0700363 L82.3007383,20.4173785 L82.5716493,20.4173785 C82.747751,20.4173785 82.8759655,20.439005 82.9559064,20.4839959 C83.0362335,20.5289868 83.0769764,20.6164584 83.0769764,20.7473762 C83.0769764,20.8867901 83.0136415,20.9804407 82.8898682,21.0298728 Z M83.8109269,19.9471945 C83.4892322,19.62801 83.0999546,19.4689005 82.6448319,19.4689005 C82.1945366,19.4689005 81.8075761,19.62801 81.4876193,19.9471945 C81.166697,20.2677306 81.0079736,20.6543049 81.0079736,21.1053726 C81.0079736,21.56204 81.166697,21.9507383 81.4843367,22.2706951 C81.8037142,22.5918105 82.1906747,22.7530441 82.6457974,22.7530441 C83.1011131,22.7530441 83.4892322,22.5918105 83.8097683,22.2706951 C84.1310768,21.9486143 84.2921172,21.5603021 84.2921172,21.1053726 C84.2921172,20.6521808 84.1310768,20.2656065 83.8109269,19.9471945 Z M83.6460245,20.1059178 C83.922149,20.3824284 84.0590527,20.7149364 84.0590527,21.1053726 C84.0590527,21.4990913 83.922149,21.8343026 83.6460245,22.1119718 C83.371831,22.3890618 83.039323,22.5278964 82.6457974,22.5278964 C82.2536234,22.5278964 81.9211154,22.3890618 81.6446047,22.1119718 C81.3719559,21.8343026 81.2354384,21.4990913 81.2354384,21.1053726 C81.2354384,20.7149364 81.3731145,20.3824284 81.6465357,20.1059178 C81.9236256,19.8286347 82.2567129,19.6909587 82.6448319,19.6909587 C83.0366197,19.6909587 83.3714448,19.8286347 83.6460245,20.1059178 L83.6460245,20.1059178 Z" id="Fill-7"></path>
                            </g>
                        </g>
                    </g>
                </g>
            </g>
        </g>
    </g>
</svg>